HIERARCHY
ROOT RootJoint
{
    OFFSET   0.000000   0.000000   0.000000
    CHANNELS 6 Xposition Yposition Zposition Xrotation Yrotation Zrotation
    JOINT lHip
    {
        OFFSET   0.100000  -0.051395   0.000000
        CHANNELS 3 Xrotation Yrotation Zrotation
        JOINT lKnee
        {
            OFFSET   0.000000  -0.410000   0.000000
            CHANNELS 3 Xrotation Yrotation Zrotation
            JOINT lAnkle
            {
                OFFSET   0.000000  -0.390000   0.000000
                CHANNELS 3 Xrotation Yrotation Zrotation
                JOINT lToeJoint
                {
                    OFFSET   0.000000  -0.050000   0.130000
                    CHANNELS 3 Xrotation Yrotation Zrotation
                    End Site
                    {
                        OFFSET   0.010000   0.002000   0.060000
                    }
                }
            }
        }
    }
    JOINT rHip
    {
        OFFSET  -0.100000  -0.051395   0.000000
        CHANNELS 3 Xrotation Yrotation Zrotation
        JOINT rKnee
        {
            OFFSET   0.000000  -0.410000   0.000000
            CHANNELS 3 Xrotation Yrotation Zrotation
            JOINT rAnkle
            {
                OFFSET   0.000000  -0.390000   0.000000
                CHANNELS 3 Xrotation Yrotation Zrotation
                JOINT rToeJoint
                {
                    OFFSET   0.000000  -0.050000   0.130000
                    CHANNELS 3 Xrotation Yrotation Zrotation
                    End Site
                    {
                        OFFSET  -0.010000   0.002000   0.060000
                    }
                }
            }
        }
    }
    JOINT pelvis_lowerback
    {
        OFFSET   0.000000   0.093605   0.000000
        CHANNELS 3 Xrotation Yrotation Zrotation
        JOINT lowerback_torso
        {
            OFFSET   0.000000   0.100000   0.000000
            CHANNELS 3 Xrotation Yrotation Zrotation
            JOINT torso_head
            {
                OFFSET   0.000000   0.282350   0.000000
                CHANNELS 3 Xrotation Yrotation Zrotation
                End Site
                {
                    OFFSET   0.000000   0.192650   0.000000
                }
            }
            JOINT lTorso_Clavicle
            {
                OFFSET   0.001000   0.157500   0.000000
                CHANNELS 3 Xrotation Yrotation Zrotation
                JOINT lShoulder
                {
                    OFFSET   0.117647   0.000000   0.000000
                    CHANNELS 3 Xrotation Yrotation Zrotation
                    JOINT lElbow
                    {
                        OFFSET   0.245000   0.000000   0.000000
                        CHANNELS 3 Xrotation Yrotation Zrotation
                        JOINT lWrist
                        {
                            OFFSET   0.240000   0.000000   0.000000
                            CHANNELS 3 Xrotation Yrotation Zrotation
                            End Site
                            {
                                OFFSET   0.116353  -0.002500   0.000000
                            }
                        }
                    }
                }
            }
            JOINT rTorso_Clavicle
            {
                OFFSET  -0.001000   0.157500   0.000000
                CHANNELS 3 Xrotation Yrotation Zrotation
                JOINT rShoulder
                {
                    OFFSET  -0.117647   0.000000   0.000000
                    CHANNELS 3 Xrotation Yrotation Zrotation
                    JOINT rElbow
                    {
                        OFFSET  -0.245000   0.000000   0.000000
                        CHANNELS 3 Xrotation Yrotation Zrotation
                        JOINT rWrist
                        {
                            OFFSET  -0.240000   0.000000   0.000000
                            CHANNELS 3 Xrotation Yrotation Zrotation
                            End Site
                            {
                                OFFSET  -0.116353  -0.002500   0.000000
                            }
                        }
                    }
                }
            }
        }
    }
}
MOTION
Frames: 10
Frame Time:   0.010000
 -2.498603   0.872382   3.747599  -4.014831  -8.026622  -0.581455 -23.298727  10.537189  -5.345733  23.975375   1.560493   5.766962   3.120088   0.498287   4.449719   0.000000   0.000006   0.000000   9.711383 -15.334509   3.000271  30.951969   4.374875  -5.790071   5.691142   2.580381   3.482144   0.000000   0.000004   0.000002   1.589922   0.678936   0.047051   6.343490   2.743837   0.208647   8.355432   0.656323  -2.192888   0.196418   0.541198 -18.649386  20.839185 -22.518048 -55.749364   0.008284  -3.612914  -0.850487  -0.853040   8.443930 -10.921691  -1.225726   0.743454  20.100804  17.458870  27.483941  44.414225  -0.930245  29.778516  -6.338042   6.753929   2.969701  -7.565367
 -2.498694   0.873112   3.759377  -4.114643  -7.988999  -0.191774 -22.482767  10.171819  -5.912109  24.298777   1.894000   5.733811   2.211067   0.674943   4.264762   0.000000   0.000006   0.000001   8.223278 -15.669787   1.975570  34.284492   4.321088  -5.850572   8.139465   2.638792   3.654997   0.000000   0.000000   0.000002   1.597446   0.651957  -0.052450   6.384108   2.631541  -0.188329   8.639121   0.629787  -2.041756   0.196350   0.532176 -18.687098  20.615416 -22.823938 -55.705834   0.009020  -3.663140  -0.839329  -0.753410   8.362569 -10.766106  -1.217631   0.622626  20.115581  17.322865  27.384586  44.665672  -0.925160  29.677442  -6.319619   6.732592   2.978462  -7.563375
 -2.498915   0.873957   3.771102  -4.167000  -8.087617   0.233006 -21.503122  10.275638  -6.430616  24.260113   1.992251   5.721065   1.440490   0.694838   4.343255   0.000001   0.000008   0.000000   6.099489 -15.620018   0.843935  38.149902   4.061472  -5.942662  10.527293   2.614775   3.676169   0.000000   0.000002   0.000000   1.601555   0.632241  -0.163383   6.411911   2.547549  -0.631133   8.769780   0.698574  -1.995892   0.194229   0.508621 -18.637404  20.340474 -23.158227 -55.655367   0.015338  -4.091688  -0.713294  -0.688379   8.165935 -10.422965  -1.208732   0.605587  20.002682  17.173652  27.368071  45.099419  -0.919087  29.538561  -6.285726   6.662712   2.931174  -7.439705
 -2.499136   0.874803   3.782827  -4.218629  -8.186616   0.657800 -20.522252  10.370711  -6.951015  24.221468   2.090510   5.708385   0.669884   0.713676   4.422009   0.000001   0.000011  -0.000001   3.977856 -15.529920  -0.284625  42.013673   3.796255  -6.016974  12.915084   2.591659   3.698324   0.000001   0.000003  -0.000001   1.605626   0.612518  -0.274314   6.439062   2.463344  -1.073867   8.900385   0.767466  -1.950184   0.192129   0.485065 -18.587711  20.065161 -23.492736 -55.606523   0.022606  -4.520221  -0.587141  -0.622191   7.969690 -10.079766  -1.199867   0.588530  19.889785  17.024606  27.350553  45.533049  -0.912928  29.399682  -6.251862   6.592938   2.883736  -7.316099
 -2.499356   0.875648   3.794553  -4.269528  -8.285992   1.082611 -19.540259  10.457002  -7.473145  24.182843   2.188777   5.695770  -0.100751   0.731453   4.501010   0.000002   0.000013  -0.000002   1.859602 -15.399668  -1.408352  45.875942   3.526647  -6.073190  15.302842   2.569486   3.721423   0.000001   0.000005  -0.000002   1.609658   0.592787  -0.385243   6.465559   2.378932  -1.516534   9.030938   0.836461  -1.904633   0.190050   0.461506 -18.538020  19.789454 -23.827456 -55.559311   0.030824  -4.948737  -0.460855  -0.554850   7.773842  -9.736501  -1.191035   0.571455  19.776892  16.875738  27.332034  45.966556  -0.906684  29.260807  -6.218028   6.523269   2.836148  -7.192555
 -2.499839   0.877137   3.806526  -4.284750  -8.391445   1.400599 -18.403702  10.591673  -7.866121  23.800823   2.184282   5.670724  -0.771183   0.710438   4.464386   0.000002   0.000010  -0.000002  -0.325922 -15.046709  -2.318214  49.244009   3.068302  -6.102345  17.422489   2.420897   3.748266   0.000000   0.000004  -0.000004   1.607686   0.562784  -0.470804   6.464905   2.254819  -1.857053   9.070475   0.981594  -1.938838   0.188320   0.440575 -18.504444  19.581434 -24.218806 -55.388359   0.040862  -5.609818  -0.279133  -0.691644   7.486283  -9.294237  -1.185783   0.603882  19.663918  16.808852  27.376027  46.348900  -0.905476  29.184224  -6.171419   6.432541   2.751697  -6.954173
 -2.500453   0.878947   3.818623  -4.281955  -8.499804   1.665236 -17.188912  10.747753  -8.196981  23.247090   2.128656   5.638992  -1.391555   0.671236   4.369515   0.000002   0.000004  -0.000002  -2.536949 -14.570942  -3.106280  52.364055   2.516357  -6.098980  19.407934   2.209690   3.782789  -0.000002   0.000002  -0.000006   1.602687   0.527654  -0.543684   6.450288   2.110984  -2.146527   9.064719   1.164768  -2.012857   0.186766   0.420957 -18.478926  19.408478 -24.638940 -55.155512   0.053885  -6.387151  -0.069369  -0.928329   7.151052  -8.803977  -1.182215   0.661060  19.550899  16.782437  27.451489  46.705941  -0.906774  29.138786  -6.118433   6.331699   2.648430  -6.658525
 -2.501068   0.880757   3.830719  -4.278652  -8.608148   1.929954 -15.972606  10.896901  -8.531305  22.693347   2.073340   5.606725  -2.011987   0.633063   4.274226   0.000002  -0.000003  -0.000002  -4.736201 -14.066212  -3.873119  55.482958   1.965412  -6.065563  21.393238   1.999805   3.824609  -0.000004   0.000000  -0.000008   1.597643   0.492530  -0.616567   6.434946   1.967224  -2.436011   9.059200   1.347949  -2.086863   0.185221   0.401339 -18.453408  19.236820 -25.059708 -54.923273   0.069798  -7.164432   0.140912  -1.161947   6.813828  -8.315468  -1.178534   0.718230  19.437876  16.755474  27.526802  47.063265  -0.908024  29.093347  -6.065472   6.231400   2.544645  -6.363082
 -2.501752   0.882205   3.842596  -4.248585  -8.733848   2.232572 -14.815187  10.970728  -8.896240  22.161693   2.073100   5.543869  -2.615760   0.629690   4.180081   0.000002  -0.000006  -0.000002  -6.891409 -13.503633  -4.547566  58.178711   1.263918  -6.043317  22.435236   1.673899   3.891065  -0.000005   0.000000  -0.000009   1.589422   0.458141  -0.692553   6.406709   1.826483  -2.737914   9.037983   1.547445  -2.186093   0.183996   0.379892 -18.462024  19.131117 -25.541554 -54.587117   0.086681  -7.993467   0.375969  -1.462701   6.442515  -7.804586  -1.177012   0.773204  19.360092  16.799649  27.615005  47.332384  -0.910742  29.068587  -6.010034   6.150400   2.445891  -6.053937
 -2.502577   0.882928   3.854032  -4.165097  -8.893923   2.611121 -13.778490  10.900603  -9.315941  21.674372   2.183188   5.421342  -3.186057   0.694794   4.089336   0.000002  -0.000003  -0.000002  -8.970922 -12.860122  -5.057221  60.028381   0.256436  -6.071627  21.591584   1.112390   3.989178  -0.000004   0.000002  -0.000009   1.574888   0.425224  -0.774748   6.353381   1.691848  -3.064696   8.985378   1.779651  -2.335660   0.183374   0.354790 -18.538904  19.159509 -26.144355 -54.040092   0.103799  -8.926066   0.660217  -1.899728   6.003475  -7.248642  -1.179991   0.823795  19.352796  16.987001  27.729412  47.424399  -0.916492  29.085186  -5.949593   6.107441   2.357888  -5.717103
